<svg width="34" height="22" viewBox="0 0 34 22" fill="none" xmlns="http://www.w3.org/2000/svg">
<g id="logo_00">
<g id="Vector">
<path d="M16.9841 14.7468C16.3181 14.7468 15.778 15.2683 15.778 15.9114C15.778 16.3975 15.3681 16.7932 14.8646 16.7932C14.3612 16.7932 13.9513 16.3975 13.9513 15.9114V5.37386C13.9513 4.73083 13.4112 4.20931 12.7452 4.20931C12.0792 4.20931 11.5391 4.73083 11.5391 5.37386L11.505 13.9148C11.505 14.4008 11.0951 14.7966 10.5917 14.7966C10.0883 14.7966 9.67836 14.4008 9.67836 13.9148V7.37048C9.67836 6.72744 9.13823 6.20593 8.47224 6.20593C7.80626 6.20593 7.26613 6.72744 7.26613 7.37048V13.9148C7.26613 15.6852 8.75804 17.1257 10.5917 17.1257C10.9859 17.1257 11.3634 17.0591 11.7148 16.9367C12.1588 18.205 13.4033 19.1215 14.8646 19.1215C16.5113 19.1215 17.8817 17.9603 18.1447 16.4413C18.1745 16.3401 18.1902 16.2337 18.1902 16.124V15.9114C18.1902 15.2683 17.6501 14.7468 16.9841 14.7468ZM29.8204 9.71731C29.1545 9.71731 28.6143 10.2388 28.6143 10.8819V12.7148C28.6143 13.3578 29.1545 13.8793 29.8204 13.8793C30.4864 13.8793 31.0266 13.3578 31.0266 12.7148V10.8819C31.0266 10.2388 30.4864 9.71731 29.8204 9.71731ZM4.18268 9.71731C3.51669 9.71731 2.97656 10.2388 2.97656 10.8819V12.7148C2.97656 13.3578 3.51669 13.8793 4.18268 13.8793C4.84866 13.8793 5.38879 13.3578 5.38879 12.7148V10.8819C5.38879 10.2388 4.84866 9.71731 4.18268 9.71731ZM17.0016 11.0481C16.3356 11.0481 15.7954 11.5696 15.7954 12.2127V12.7148C15.7954 13.3578 16.3356 13.8793 17.0016 13.8793C17.6675 13.8793 18.2077 13.3578 18.2077 12.7148V12.2127C18.2077 11.5696 17.6675 11.0481 17.0016 11.0481ZM23.4106 4.87513C23.0164 4.87513 22.6388 4.94179 22.2875 5.06416C21.8435 3.79496 20.5998 2.87851 19.1376 2.87851C17.304 2.87851 15.8121 4.31901 15.8121 6.08947V8.80423C15.8121 9.44727 16.3522 9.96878 17.0182 9.96878C17.6842 9.96878 18.2243 9.44727 18.2243 8.80423V6.08947C18.2243 5.6034 18.6342 5.20762 19.1376 5.20762C19.641 5.20762 20.0509 5.6034 20.0509 6.08947V16.627C20.0509 17.27 20.5911 17.7915 21.257 17.7915C21.923 17.7915 22.4632 17.27 22.4632 16.627L22.4972 8.08609C22.4972 7.60002 22.9071 7.20424 23.4106 7.20424C23.914 7.20424 24.3239 7.60002 24.3239 8.08609V14.6304C24.3239 15.2734 24.864 15.7949 25.53 15.7949C26.196 15.7949 26.7361 15.2734 26.7361 14.6304V8.08525C26.7361 6.31479 25.2442 4.87513 23.4106 4.87513Z" fill="white"/>
<path d="M16.9841 14.7468C16.3181 14.7468 15.778 15.2683 15.778 15.9114C15.778 16.3975 15.3681 16.7932 14.8646 16.7932C14.3612 16.7932 13.9513 16.3975 13.9513 15.9114V5.37386C13.9513 4.73083 13.4112 4.20931 12.7452 4.20931C12.0792 4.20931 11.5391 4.73083 11.5391 5.37386L11.505 13.9148C11.505 14.4008 11.0951 14.7966 10.5917 14.7966C10.0883 14.7966 9.67836 14.4008 9.67836 13.9148V7.37048C9.67836 6.72744 9.13823 6.20593 8.47224 6.20593C7.80626 6.20593 7.26613 6.72744 7.26613 7.37048V13.9148C7.26613 15.6852 8.75804 17.1257 10.5917 17.1257C10.9859 17.1257 11.3634 17.0591 11.7148 16.9367C12.1588 18.205 13.4033 19.1215 14.8646 19.1215C16.5113 19.1215 17.8817 17.9603 18.1447 16.4413C18.1745 16.3401 18.1902 16.2337 18.1902 16.124V15.9114C18.1902 15.2683 17.6501 14.7468 16.9841 14.7468ZM29.8204 9.71731C29.1545 9.71731 28.6143 10.2388 28.6143 10.8819V12.7148C28.6143 13.3578 29.1545 13.8793 29.8204 13.8793C30.4864 13.8793 31.0266 13.3578 31.0266 12.7148V10.8819C31.0266 10.2388 30.4864 9.71731 29.8204 9.71731ZM4.18268 9.71731C3.51669 9.71731 2.97656 10.2388 2.97656 10.8819V12.7148C2.97656 13.3578 3.51669 13.8793 4.18268 13.8793C4.84866 13.8793 5.38879 13.3578 5.38879 12.7148V10.8819C5.38879 10.2388 4.84866 9.71731 4.18268 9.71731ZM17.0016 11.0481C16.3356 11.0481 15.7954 11.5696 15.7954 12.2127V12.7148C15.7954 13.3578 16.3356 13.8793 17.0016 13.8793C17.6675 13.8793 18.2077 13.3578 18.2077 12.7148V12.2127C18.2077 11.5696 17.6675 11.0481 17.0016 11.0481ZM23.4106 4.87513C23.0164 4.87513 22.6388 4.94179 22.2875 5.06416C21.8435 3.79496 20.5998 2.87851 19.1376 2.87851C17.304 2.87851 15.8121 4.31901 15.8121 6.08947V8.80423C15.8121 9.44727 16.3522 9.96878 17.0182 9.96878C17.6842 9.96878 18.2243 9.44727 18.2243 8.80423V6.08947C18.2243 5.6034 18.6342 5.20762 19.1376 5.20762C19.641 5.20762 20.0509 5.6034 20.0509 6.08947V16.627C20.0509 17.27 20.5911 17.7915 21.257 17.7915C21.923 17.7915 22.4632 17.27 22.4632 16.627L22.4972 8.08609C22.4972 7.60002 22.9071 7.20424 23.4106 7.20424C23.914 7.20424 24.3239 7.60002 24.3239 8.08609V14.6304C24.3239 15.2734 24.864 15.7949 25.53 15.7949C26.196 15.7949 26.7361 15.2734 26.7361 14.6304V8.08525C26.7361 6.31479 25.2442 4.87513 23.4106 4.87513Z" fill="url(#paint0_linear_9047_18982)"/>
</g>
</g>
<defs>
<linearGradient id="paint0_linear_9047_18982" x1="5.84531" y1="5.80842" x2="17.3485" y2="11.9526" gradientUnits="userSpaceOnUse">
<stop stop-color="#F4FF81"/>
<stop offset="1" stop-color="#00F3F3"/>
</linearGradient>
</defs>
</svg>
