<svg width="124" height="75" viewBox="0 0 124 75" fill="none" xmlns="http://www.w3.org/2000/svg">
<path d="M61.9229 54.2405C58.9847 54.2405 56.6018 56.6184 56.6018 59.5505C56.6018 61.7668 54.7934 63.5714 52.5724 63.5714C50.3514 63.5714 48.543 61.7668 48.543 59.5505V11.503C48.543 8.57093 46.1601 6.19299 43.222 6.19299C40.2838 6.19299 37.9009 8.57093 37.9009 11.503L37.7505 50.4466C37.7505 52.6629 35.9421 54.4675 33.7211 54.4675C31.5001 54.4675 29.6917 52.6629 29.6917 50.4466V20.6069C29.6917 17.6748 27.3088 15.2969 24.3707 15.2969C21.4325 15.2969 19.0496 17.6748 19.0496 20.6069V50.4466C19.0496 58.5193 25.6315 65.0874 33.7211 65.0874C35.4601 65.0874 37.1258 64.7835 38.6759 64.2255C40.6347 70.0088 46.1254 74.1875 52.5724 74.1875C59.8369 74.1875 65.8829 68.8929 67.0435 61.9669C67.1746 61.5051 67.244 61.0203 67.244 60.5201V59.5505C67.244 56.6184 64.861 54.2405 61.9229 54.2405ZM118.554 31.3076C115.616 31.3076 113.233 33.6855 113.233 36.6176V44.975C113.233 47.907 115.616 50.285 118.554 50.285C121.492 50.285 123.875 47.907 123.875 44.975V36.6176C123.875 33.6855 121.492 31.3076 118.554 31.3076ZM5.44609 31.3076C2.50792 31.3076 0.125 33.6855 0.125 36.6176V44.975C0.125 47.907 2.50792 50.285 5.44609 50.285C8.38425 50.285 10.7672 47.907 10.7672 44.975V36.6176C10.7672 33.6855 8.38425 31.3076 5.44609 31.3076ZM62 37.3756C59.0618 37.3756 56.6789 39.7535 56.6789 42.6855V44.975C56.6789 47.907 59.0618 50.285 62 50.285C64.9382 50.285 67.3211 47.907 67.3211 44.975V42.6855C67.3211 39.7535 64.9382 37.3756 62 37.3756ZM90.275 9.2289C88.536 9.2289 86.8703 9.53288 85.3202 10.0908C83.3615 4.30371 77.8746 0.125 71.4237 0.125C63.3341 0.125 56.7522 6.6932 56.7522 14.7659V27.1443C56.7522 30.0763 59.1351 32.4542 62.0733 32.4542C65.0114 32.4542 67.3943 30.0763 67.3943 27.1443V14.7659C67.3943 12.5496 69.2028 10.7449 71.4237 10.7449C73.6447 10.7449 75.4531 12.5496 75.4531 14.7659V62.8134C75.4531 65.7454 77.836 68.1234 80.7742 68.1234C83.7123 68.1234 86.0953 65.7454 86.0953 62.8134L86.2457 23.8698C86.2457 21.6535 88.0541 19.8488 90.275 19.8488C92.496 19.8488 94.3044 21.6535 94.3044 23.8698V53.7095C94.3044 56.6415 96.6873 59.0195 99.6255 59.0195C102.564 59.0195 104.947 56.6415 104.947 53.7095V23.8659C104.947 15.7933 98.3646 9.2289 90.275 9.2289Z" fill="white"/>
<path d="M61.9229 54.2405C58.9847 54.2405 56.6018 56.6184 56.6018 59.5505C56.6018 61.7668 54.7934 63.5714 52.5724 63.5714C50.3514 63.5714 48.543 61.7668 48.543 59.5505V11.503C48.543 8.57093 46.1601 6.19299 43.222 6.19299C40.2838 6.19299 37.9009 8.57093 37.9009 11.503L37.7505 50.4466C37.7505 52.6629 35.9421 54.4675 33.7211 54.4675C31.5001 54.4675 29.6917 52.6629 29.6917 50.4466V20.6069C29.6917 17.6748 27.3088 15.2969 24.3707 15.2969C21.4325 15.2969 19.0496 17.6748 19.0496 20.6069V50.4466C19.0496 58.5193 25.6315 65.0874 33.7211 65.0874C35.4601 65.0874 37.1258 64.7835 38.6759 64.2255C40.6347 70.0088 46.1254 74.1875 52.5724 74.1875C59.8369 74.1875 65.8829 68.8929 67.0435 61.9669C67.1746 61.5051 67.244 61.0203 67.244 60.5201V59.5505C67.244 56.6184 64.861 54.2405 61.9229 54.2405ZM118.554 31.3076C115.616 31.3076 113.233 33.6855 113.233 36.6176V44.975C113.233 47.907 115.616 50.285 118.554 50.285C121.492 50.285 123.875 47.907 123.875 44.975V36.6176C123.875 33.6855 121.492 31.3076 118.554 31.3076ZM5.44609 31.3076C2.50792 31.3076 0.125 33.6855 0.125 36.6176V44.975C0.125 47.907 2.50792 50.285 5.44609 50.285C8.38425 50.285 10.7672 47.907 10.7672 44.975V36.6176C10.7672 33.6855 8.38425 31.3076 5.44609 31.3076ZM62 37.3756C59.0618 37.3756 56.6789 39.7535 56.6789 42.6855V44.975C56.6789 47.907 59.0618 50.285 62 50.285C64.9382 50.285 67.3211 47.907 67.3211 44.975V42.6855C67.3211 39.7535 64.9382 37.3756 62 37.3756ZM90.275 9.2289C88.536 9.2289 86.8703 9.53288 85.3202 10.0908C83.3615 4.30371 77.8746 0.125 71.4237 0.125C63.3341 0.125 56.7522 6.6932 56.7522 14.7659V27.1443C56.7522 30.0763 59.1351 32.4542 62.0733 32.4542C65.0114 32.4542 67.3943 30.0763 67.3943 27.1443V14.7659C67.3943 12.5496 69.2028 10.7449 71.4237 10.7449C73.6447 10.7449 75.4531 12.5496 75.4531 14.7659V62.8134C75.4531 65.7454 77.836 68.1234 80.7742 68.1234C83.7123 68.1234 86.0953 65.7454 86.0953 62.8134L86.2457 23.8698C86.2457 21.6535 88.0541 19.8488 90.275 19.8488C92.496 19.8488 94.3044 21.6535 94.3044 23.8698V53.7095C94.3044 56.6415 96.6873 59.0195 99.6255 59.0195C102.564 59.0195 104.947 56.6415 104.947 53.7095V23.8659C104.947 15.7933 98.3646 9.2289 90.275 9.2289Z" fill="url(#paint0_linear_4614_10426)"/>
<defs>
<linearGradient id="paint0_linear_4614_10426" x1="12.7813" y1="13.4844" x2="64.26" y2="40.0889" gradientUnits="userSpaceOnUse">
<stop stop-color="#F4FF81"/>
<stop offset="1" stop-color="#00F3F3"/>
</linearGradient>
</defs>
</svg>
