<svg width="128" height="52" viewBox="0 0 128 52" fill="none" xmlns="http://www.w3.org/2000/svg">
<g filter="url(#filter0_d_397_11272)">
<rect x="1" y="1" width="124" height="48" rx="24" fill="white"/>
<path d="M68.1562 19.6875H70.25L73.8281 28.4531H73.9688L77.5469 19.6875H79.6406V31H78V22.8281H77.8906L74.5781 30.9844H73.2188L69.8906 22.8125H69.7969V31H68.1562V19.6875ZM81.3899 28.6094C81.3899 26.6719 83.0305 26.1719 84.5618 26.0625C85.1243 26.0234 86.3977 25.9531 86.7961 25.9375L86.7805 25.2656C86.7805 24.3125 86.2024 23.75 85.0618 23.75C84.0774 23.75 83.4836 24.2031 83.3118 24.8281H81.6555C81.8118 23.4219 83.1243 22.4062 85.1243 22.4062C86.468 22.4062 88.4524 22.9062 88.4524 25.3594V31H86.8274V29.8438H86.7649C86.4368 30.4844 85.6555 31.1875 84.2493 31.1875C82.6399 31.1875 81.3899 30.2656 81.3899 28.6094ZM83.0149 28.625C83.0149 29.4375 83.6868 29.8594 84.6243 29.8594C85.9836 29.8594 86.7961 28.9531 86.7961 27.9375V27.1562C86.4055 27.1875 85.1868 27.2734 84.7961 27.2969C83.7024 27.375 83.0149 27.7812 83.0149 28.625ZM94.0298 31.1719C91.561 31.1719 90.061 29.3438 90.061 26.7969C90.061 24.2031 91.6079 22.4062 93.9985 22.4062C95.936 22.4062 97.3423 23.5469 97.5141 25.2656H95.8891C95.7173 24.4688 95.0766 23.7969 94.0298 23.7969C92.6548 23.7969 91.7329 24.9375 91.7329 26.75C91.7329 28.6094 92.6391 29.75 94.0298 29.75C94.9673 29.75 95.686 29.2344 95.8891 28.3125H97.5141C97.3266 29.9531 96.0298 31.1719 94.0298 31.1719Z" fill="black"/>
<path d="M49.2301 25.1921C49.2124 22.2901 51.6013 20.8922 51.7075 20.8214C50.3626 18.8395 48.2569 18.5741 47.5137 18.5564C45.7441 18.3794 44.0277 19.6181 43.1252 19.6181C42.2051 19.6181 40.8248 18.5741 39.3207 18.6095C37.4096 18.6271 35.6047 19.742 34.6314 21.4761C32.5965 24.9975 34.1183 30.1822 36.0648 33.0312C37.038 34.4291 38.1882 35.9863 39.6746 35.9332C41.1433 35.8801 41.6742 34.9954 43.4437 34.9954C45.1956 34.9954 45.7087 35.9332 47.2306 35.8978C48.8054 35.8801 49.7787 34.4999 50.7342 33.0843C51.8667 31.4917 52.3091 29.9168 52.3268 29.8283C52.2737 29.8106 49.2655 28.6604 49.2301 25.1921Z" fill="black"/>
<path d="M46.3624 16.6806C47.141 15.6897 47.6896 14.3625 47.5303 13C46.3978 13.0531 44.9822 13.7786 44.1505 14.7518C43.425 15.6012 42.7702 16.9815 42.9472 18.2909C44.2213 18.3794 45.5484 17.6362 46.3624 16.6806Z" fill="black"/>
</g>
<defs>
<filter id="filter0_d_397_11272" x="0" y="0" width="128" height="52" filterUnits="userSpaceOnUse" color-interpolation-filters="sRGB">
<feFlood flood-opacity="0" result="BackgroundImageFix"/>
<feColorMatrix in="SourceAlpha" type="matrix" values="0 0 0 0 0 0 0 0 0 0 0 0 0 0 0 0 0 0 127 0" result="hardAlpha"/>
<feOffset dx="1" dy="1"/>
<feGaussianBlur stdDeviation="1"/>
<feComposite in2="hardAlpha" operator="out"/>
<feColorMatrix type="matrix" values="0 0 0 0 0 0 0 0 0 0 0 0 0 0 0 0 0 0 0.25 0"/>
<feBlend mode="normal" in2="BackgroundImageFix" result="effect1_dropShadow_397_11272"/>
<feBlend mode="normal" in="SourceGraphic" in2="effect1_dropShadow_397_11272" result="shape"/>
</filter>
</defs>
</svg>
