<svg width="164" height="52" viewBox="0 0 164 52" fill="none" xmlns="http://www.w3.org/2000/svg">
<g filter="url(#filter0_d_397_11277)">
<rect x="1" y="1" width="160" height="48" rx="24" fill="white"/>
<path d="M70.3906 31L67.25 19.6875H69.0625L71.2656 28.4375H71.3594L73.6562 19.6875H75.4375L77.7344 28.4375H77.8281L80.0312 19.6875H81.8438L78.7031 31H76.9688L74.5938 22.5469H74.5L72.125 31H70.3906ZM83.0774 31V22.5156H84.7493V31H83.0774ZM83.9211 21.2031C83.343 21.2031 82.8586 20.7656 82.8586 20.2188C82.8586 19.6719 83.343 19.2344 83.9211 19.2344C84.4836 19.2344 84.968 19.6719 84.968 20.2188C84.968 20.7656 84.4836 21.2031 83.9211 21.2031ZM88.4204 25.9688V31H86.7485V22.5156H88.3579V23.9062H88.4516C88.8579 23 89.686 22.4062 90.9516 22.4062C92.7016 22.4062 93.8423 23.5 93.8423 25.6094V31H92.186V25.8125C92.186 24.5781 91.5141 23.8438 90.3891 23.8438C89.2485 23.8438 88.4204 24.6094 88.4204 25.9688ZM99.0134 31.1719C96.9665 31.1719 95.4665 29.5156 95.4665 26.7812C95.4665 24.0156 96.9821 22.4062 99.029 22.4062C100.607 22.4062 101.185 23.3594 101.482 23.8906H101.56V19.6875H103.232V31H101.607V29.6719H101.482C101.17 30.2344 100.56 31.1719 99.0134 31.1719ZM99.3884 29.75C100.81 29.75 101.607 28.5312 101.607 26.75C101.607 24.9844 100.826 23.8281 99.3884 23.8281C97.904 23.8281 97.1696 25.0781 97.1696 26.75C97.1696 28.4531 97.9352 29.75 99.3884 29.75ZM108.966 31.1719C106.56 31.1719 104.997 29.4219 104.997 26.7969C104.997 24.1562 106.56 22.4062 108.966 22.4062C111.356 22.4062 112.919 24.1562 112.919 26.7969C112.919 29.4219 111.356 31.1719 108.966 31.1719ZM108.966 29.7812C110.497 29.7812 111.231 28.4219 111.231 26.7969C111.231 25.1719 110.497 23.7812 108.966 23.7812C107.403 23.7812 106.669 25.1719 106.669 26.7969C106.669 28.4219 107.403 29.7812 108.966 29.7812ZM116.09 31L113.606 22.5156H115.324L116.981 28.7344H117.074L118.731 22.5156H120.449L122.09 28.7031H122.184L123.824 22.5156H125.543L123.059 31H121.356L119.637 24.8906H119.512L117.809 31H116.09ZM131.652 24.8281C131.495 24.1562 130.964 23.7188 130.042 23.7188C129.089 23.7188 128.402 24.2188 128.417 24.8594C128.402 25.3594 128.808 25.7188 129.745 25.9375L131.089 26.25C132.652 26.5938 133.402 27.3438 133.417 28.5469C133.402 30.0781 132.12 31.1719 129.949 31.1719C127.917 31.1719 126.699 30.2656 126.495 28.6875H128.199C128.339 29.4531 128.933 29.8281 129.933 29.8281C131.011 29.8281 131.699 29.3906 131.714 28.6719C131.699 28.125 131.292 27.7656 130.402 27.5625L129.074 27.2812C127.542 26.9375 126.745 26.125 126.745 24.9531C126.745 23.4375 128.058 22.4062 130.027 22.4062C131.917 22.4062 133.089 23.375 133.261 24.8281H131.652Z" fill="black"/>
<rect x="34" y="18" width="18" height="11" fill="black" stroke="black" stroke-width="3" stroke-linejoin="round"/>
<path d="M36 34H50" stroke="black" stroke-width="1.5" stroke-linecap="round" stroke-linejoin="round"/>
<path d="M43 27V34" stroke="black" stroke-width="1.5" stroke-linejoin="round"/>
</g>
<defs>
<filter id="filter0_d_397_11277" x="0" y="0" width="164" height="52" filterUnits="userSpaceOnUse" color-interpolation-filters="sRGB">
<feFlood flood-opacity="0" result="BackgroundImageFix"/>
<feColorMatrix in="SourceAlpha" type="matrix" values="0 0 0 0 0 0 0 0 0 0 0 0 0 0 0 0 0 0 127 0" result="hardAlpha"/>
<feOffset dx="1" dy="1"/>
<feGaussianBlur stdDeviation="1"/>
<feComposite in2="hardAlpha" operator="out"/>
<feColorMatrix type="matrix" values="0 0 0 0 0 0 0 0 0 0 0 0 0 0 0 0 0 0 0.25 0"/>
<feBlend mode="normal" in2="BackgroundImageFix" result="effect1_dropShadow_397_11277"/>
<feBlend mode="normal" in="SourceGraphic" in2="effect1_dropShadow_397_11277" result="shape"/>
</filter>
</defs>
</svg>
